<?xml version="1.0" standalone="no"?><!DOCTYPE svg PUBLIC "-//W3C//DTD SVG 1.1//EN" "http://www.w3.org/Graphics/SVG/1.1/DTD/svg11.dtd"><svg t="1691200471978" class="icon" viewBox="0 0 1160 1024" version="1.1" xmlns="http://www.w3.org/2000/svg" p-id="3561" xmlns:xlink="http://www.w3.org/1999/xlink" width="226.5625" height="200"><path d="M1126.4 955.733333H68.266667V34.133333C68.266667 13.653333 54.613333 0 34.133333 0S0 13.653333 0 34.133333v955.733334c0 20.48 13.653333 34.133333 34.133333 34.133333h1092.266667c20.48 0 34.133333-13.653333 34.133333-34.133333s-13.653333-34.133333-34.133333-34.133334z" fill="#1296db" p-id="3562"></path><path d="M307.2 559.786667h204.8l-75.093333 314.026666c-6.826667 13.653333 6.826667 34.133333 20.48 40.96 6.826667 0 6.826667 6.826667 13.653333 6.826667s20.48-6.826667 27.306667-13.653333L914.773333 409.6c6.826667-6.826667 6.826667-27.306667 6.826667-34.133333-6.826667-13.653333-20.48-20.48-34.133333-20.48h-177.493334l122.88-157.013334c6.826667-13.653333 6.826667-27.306667 6.826667-34.133333-6.826667-20.48-20.48-27.306667-34.133333-27.306667H552.96c-6.826667 0-20.48 6.826667-27.306667 13.653334L279.893333 512c-6.826667 6.826667-6.826667 20.48 0 34.133333 0 6.826667 13.653333 13.653333 27.306667 13.653334zM573.44 204.8h163.84L614.4 361.813333c-13.653333 13.653333-13.653333 27.306667-6.826667 40.96 6.826667 6.826667 20.48 13.653333 34.133334 13.653334H819.2L546.133333 750.933333l47.786667-218.453333c0-6.826667 0-20.48-6.826667-27.306667-13.653333-6.826667-20.48-13.653333-34.133333-13.653333H375.466667L573.44 204.8z" fill="#1296db" p-id="3563"></path></svg>